<svg width="44" height="44" viewBox="0 0 44 44" fill="none" xmlns="http://www.w3.org/2000/svg">
<path d="M24.4301 28.8201C24.2401 28.8201 24.0501 28.7501 23.9001 28.6001C23.6101 28.3101 23.6101 27.8301 23.9001 27.5401L29.4401 22.0001L23.9001 16.4601C23.6101 16.1701 23.6101 15.6901 23.9001 15.4001C24.1901 15.1101 24.6701 15.1101 24.9601 15.4001L31.0301 21.4701C31.3201 21.7601 31.3201 22.2401 31.0301 22.5301L24.9601 28.6001C24.8101 28.7501 24.6201 28.8201 24.4301 28.8201Z" fill="#39A935"/>
<path d="M30.33 22.75H13.5C13.09 22.75 12.75 22.41 12.75 22C12.75 21.59 13.09 21.25 13.5 21.25H30.33C30.74 21.25 31.08 21.59 31.08 22C31.08 22.41 30.74 22.75 30.33 22.75Z" fill="#39A935"/>
</svg>
